<svg width="128" height="43" viewBox="0 0 128 43" fill="none" xmlns="http://www.w3.org/2000/svg">
<path d="M1.11392 43C0.580587 43 0.31392 42.7333 0.31392 42.2V1.144C0.31392 0.610664 0.580587 0.343998 1.11392 0.343998H12.4419C12.9753 0.343998 13.2419 0.610664 13.2419 1.144V30.776H19.0339C19.5673 30.776 19.8339 31.0427 19.8339 31.576V42.2C19.8339 42.7333 19.5673 43 19.0339 43H1.11392ZM23.6139 43C23.0806 43 22.8139 42.7333 22.8139 42.2V1.144C22.8139 0.610664 23.0806 0.343998 23.6139 0.343998H34.9419C35.4753 0.343998 35.7419 0.610664 35.7419 1.144V42.2C35.7419 42.7333 35.4753 43 34.9419 43H23.6139ZM47.3184 43C46.8278 43 46.4011 42.8187 46.0384 42.456L39.6384 36.056C39.2971 35.7147 39.1264 35.288 39.1264 34.776V8.536C39.1264 8.04533 39.2971 7.61867 39.6384 7.256L46.0384 0.855999C46.4011 0.514665 46.8278 0.343998 47.3184 0.343998H66.6144C67.1478 0.343998 67.4144 0.610664 67.4144 1.144V11.768C67.4144 12.3013 67.1478 12.568 66.6144 12.568H53.1424C52.8438 12.568 52.5878 12.6747 52.3744 12.888C52.1611 13.08 52.0544 13.3253 52.0544 13.624V29.72C52.0544 29.9973 52.1611 30.2427 52.3744 30.456C52.5878 30.6693 52.8438 30.776 53.1424 30.776H58.0064V25.528L55.1264 25.464C54.5931 25.464 54.3264 25.1973 54.3264 24.664V16.824C54.3264 16.2907 54.5931 16.024 55.1264 16.024H68.6624C69.1958 16.024 69.4624 16.2907 69.4624 16.824V34.776C69.4624 35.288 69.2811 35.7147 68.9184 36.056L62.5184 42.456C62.1771 42.8187 61.7504 43 61.2384 43H47.3184ZM73.4264 43C72.8931 43 72.6264 42.7333 72.6264 42.2V1.144C72.6264 0.610664 72.8931 0.343998 73.4264 0.343998H84.7544C85.2878 0.343998 85.5544 0.610664 85.5544 1.144V15.416H88.9784V1.144C88.9784 0.610664 89.2451 0.343998 89.7784 0.343998H101.106C101.64 0.343998 101.906 0.610664 101.906 1.144V42.2C101.906 42.7333 101.64 43 101.106 43H89.7784C89.2451 43 88.9784 42.7333 88.9784 42.2V27.608H85.5544V42.2C85.5544 42.7333 85.2878 43 84.7544 43H73.4264ZM110.882 43C110.349 43 110.082 42.7333 110.082 42.2V12.568H106.114C105.581 12.568 105.314 12.3013 105.314 11.768V1.144C105.314 0.610664 105.581 0.343998 106.114 0.343998H127.042C127.575 0.343998 127.842 0.610664 127.842 1.144V11.768C127.842 12.3013 127.575 12.568 127.042 12.568H123.042V42.2C123.042 42.7333 122.775 43 122.242 43H110.882Z" fill="black"/>
</svg>
